<mxfile host="app.diagrams.net" agent="Mozilla/5.0 (Macintosh; Intel Mac OS X 10.15; rv:131.0) Gecko/20100101 Firefox/131.0" version="24.8.3" pages="2">
  <diagram name="desktop" id="3DDum1nDijUk3y7wIDRm">
    <mxGraphModel dx="789" dy="517" grid="1" gridSize="10" guides="1" tooltips="1" connect="1" arrows="1" fold="1" page="1" pageScale="1" pageWidth="1000" pageHeight="600" math="0" shadow="0">
      <root>
        <mxCell id="0" />
        <mxCell id="1" parent="0" />
        <mxCell id="cRYnzpdCW-J0f_YpP3mc-1" value="" style="rounded=0;whiteSpace=wrap;html=1;fillColor=#E8E8E8;fontColor=#333333;strokeColor=#666666;" parent="1" vertex="1">
          <mxGeometry x="160" y="40" width="560" height="480" as="geometry" />
        </mxCell>
        <mxCell id="cRYnzpdCW-J0f_YpP3mc-2" value="" style="rounded=1;whiteSpace=wrap;html=1;shadow=0;fillColor=#dae8fc;strokeColor=#666666;" parent="1" vertex="1">
          <mxGeometry x="240" y="160" width="400" height="80" as="geometry" />
        </mxCell>
        <mxCell id="cRYnzpdCW-J0f_YpP3mc-3" value="" style="rounded=0;whiteSpace=wrap;html=1;fillColor=#DBDBDB;strokeColor=#666666;fontColor=#333333;" parent="1" vertex="1">
          <mxGeometry x="160" y="40" width="560" height="40" as="geometry" />
        </mxCell>
        <mxCell id="cRYnzpdCW-J0f_YpP3mc-4" value="" style="rounded=1;whiteSpace=wrap;html=1;shadow=0;fillColor=#d5e8d4;strokeColor=#666666;" parent="1" vertex="1">
          <mxGeometry x="240" y="360" width="400" height="80" as="geometry" />
        </mxCell>
        <mxCell id="cRYnzpdCW-J0f_YpP3mc-5" value="" style="rounded=0;whiteSpace=wrap;html=1;strokeColor=none;fillColor=#d5e8d4;" parent="1" vertex="1">
          <mxGeometry x="240" y="200" width="400" height="200" as="geometry" />
        </mxCell>
        <mxCell id="cRYnzpdCW-J0f_YpP3mc-6" value="" style="endArrow=none;html=1;rounded=0;exitX=0;exitY=0.5;exitDx=0;exitDy=0;entryX=0;entryY=0.5;entryDx=0;entryDy=0;strokeColor=#666666;" parent="1" source="cRYnzpdCW-J0f_YpP3mc-4" target="cRYnzpdCW-J0f_YpP3mc-2" edge="1">
          <mxGeometry width="50" height="50" relative="1" as="geometry">
            <mxPoint x="-10" y="330" as="sourcePoint" />
            <mxPoint x="40" y="280" as="targetPoint" />
          </mxGeometry>
        </mxCell>
        <mxCell id="cRYnzpdCW-J0f_YpP3mc-7" value="" style="endArrow=none;html=1;rounded=0;exitX=1;exitY=0.5;exitDx=0;exitDy=0;entryX=1;entryY=0.5;entryDx=0;entryDy=0;strokeColor=#666666;" parent="1" source="cRYnzpdCW-J0f_YpP3mc-4" target="cRYnzpdCW-J0f_YpP3mc-2" edge="1">
          <mxGeometry width="50" height="50" relative="1" as="geometry">
            <mxPoint x="750" y="590" as="sourcePoint" />
            <mxPoint x="750" y="230" as="targetPoint" />
          </mxGeometry>
        </mxCell>
        <mxCell id="cRYnzpdCW-J0f_YpP3mc-8" value="" style="endArrow=none;html=1;rounded=0;exitX=0;exitY=0.5;exitDx=0;exitDy=0;entryX=1;entryY=0;entryDx=0;entryDy=0;strokeColor=#666666;" parent="1" source="cRYnzpdCW-J0f_YpP3mc-2" target="cRYnzpdCW-J0f_YpP3mc-5" edge="1">
          <mxGeometry width="50" height="50" relative="1" as="geometry">
            <mxPoint x="200.00000000000023" y="199.69" as="sourcePoint" />
            <mxPoint x="720.0000000000002" y="199.69" as="targetPoint" />
          </mxGeometry>
        </mxCell>
        <mxCell id="cRYnzpdCW-J0f_YpP3mc-9" value="&lt;font&gt;outer_position&lt;/font&gt;" style="endArrow=blockThin;html=1;strokeWidth=3;rounded=0;exitX=0;exitY=0;exitDx=0;exitDy=0;dashed=1;align=right;fontSize=20;fontFamily=monospace;fontColor=#6C8EBF;labelBackgroundColor=none;spacingLeft=0;spacingRight=15;spacing=0;fillColor=#dae8fc;strokeColor=#6C8EBF;endFill=1;startArrow=oval;startFill=1;endSize=6;targetPerimeterSpacing=0;" parent="1" source="cRYnzpdCW-J0f_YpP3mc-3" edge="1">
          <mxGeometry x="-0.3088" y="-33" width="50" height="50" relative="1" as="geometry">
            <mxPoint x="80" y="160" as="sourcePoint" />
            <mxPoint x="240" y="160" as="targetPoint" />
            <mxPoint as="offset" />
          </mxGeometry>
        </mxCell>
        <mxCell id="cRYnzpdCW-J0f_YpP3mc-10" value="&lt;font&gt;outer_size&lt;/font&gt;" style="endArrow=none;html=1;strokeWidth=3;rounded=0;dashed=1;align=left;fontSize=20;fontFamily=monospace;fontColor=#6C8EBF;labelBackgroundColor=none;spacingLeft=15;spacingRight=0;spacing=0;exitX=1;exitY=0;exitDx=0;exitDy=0;fillColor=#dae8fc;strokeColor=#6c8ebf;" parent="1" source="cRYnzpdCW-J0f_YpP3mc-2" edge="1">
          <mxGeometry width="50" height="50" relative="1" as="geometry">
            <mxPoint x="850" y="190" as="sourcePoint" />
            <mxPoint x="760" y="440" as="targetPoint" />
            <Array as="points">
              <mxPoint x="890" y="160" />
              <mxPoint x="890" y="440" />
            </Array>
            <mxPoint as="offset" />
          </mxGeometry>
        </mxCell>
        <mxCell id="cRYnzpdCW-J0f_YpP3mc-11" value="&lt;font&gt;surface_size&lt;/font&gt;" style="endArrow=none;html=1;strokeWidth=3;rounded=0;dashed=1;align=left;fontSize=20;fontFamily=monospace;fontColor=#82B366;labelBackgroundColor=none;spacingLeft=15;spacingRight=0;spacing=0;entryX=1;entryY=1;entryDx=0;entryDy=0;fillColor=#d5e8d4;strokeColor=#82B366;" parent="1" target="cRYnzpdCW-J0f_YpP3mc-4" edge="1">
          <mxGeometry width="50" height="50" relative="1" as="geometry">
            <mxPoint x="640" y="200" as="sourcePoint" />
            <mxPoint x="760" y="440" as="targetPoint" />
            <Array as="points">
              <mxPoint x="750" y="200" />
              <mxPoint x="750" y="440" />
            </Array>
            <mxPoint as="offset" />
          </mxGeometry>
        </mxCell>
        <mxCell id="cRYnzpdCW-J0f_YpP3mc-12" value="&lt;font&gt;surface_position&lt;/font&gt;" style="endArrow=blockThin;html=1;strokeWidth=3;rounded=0;dashed=1;align=right;fontSize=20;fontFamily=monospace;fontColor=#82B366;labelBackgroundColor=none;spacingLeft=0;spacingRight=15;spacing=0;fillColor=#d5e8d4;strokeColor=#82b366;exitX=0;exitY=0;exitDx=0;exitDy=0;entryX=0;entryY=0;entryDx=0;entryDy=0;curved=1;startArrow=oval;startFill=1;endFill=1;" parent="1" source="cRYnzpdCW-J0f_YpP3mc-2" target="cRYnzpdCW-J0f_YpP3mc-5" edge="1">
          <mxGeometry y="-70" width="50" height="50" relative="1" as="geometry">
            <mxPoint x="120" y="160" as="sourcePoint" />
            <mxPoint x="140" y="220" as="targetPoint" />
            <Array as="points">
              <mxPoint x="230" y="180" />
            </Array>
            <mxPoint x="-7" y="-31" as="offset" />
          </mxGeometry>
        </mxCell>
      </root>
    </mxGraphModel>
  </diagram>
  <diagram name="mobile" id="D5mAeJSS4Z33KEKjPCBt">
    <mxGraphModel dx="1710" dy="1120" grid="1" gridSize="10" guides="1" tooltips="1" connect="1" arrows="1" fold="1" page="1" pageScale="1" pageWidth="720" pageHeight="720" math="0" shadow="0">
      <root>
        <mxCell id="0" />
        <mxCell id="1" parent="0" />
        <mxCell id="RxwCrVmIsQwV7z5iJ9nY-1" value="" style="rounded=1;whiteSpace=wrap;html=1;fillColor=#E8E8E8;fontColor=#333333;strokeColor=#666666;" parent="1" vertex="1">
          <mxGeometry x="200" y="40" width="320" height="640" as="geometry" />
        </mxCell>
        <mxCell id="RxwCrVmIsQwV7z5iJ9nY-2" value="" style="rounded=1;whiteSpace=wrap;html=1;shadow=0;fillColor=#d5e8d4;strokeColor=#82b366;" parent="1" vertex="1">
          <mxGeometry x="210" y="50" width="300" height="620" as="geometry" />
        </mxCell>
        <mxCell id="RxwCrVmIsQwV7z5iJ9nY-4" value="" style="rounded=0;whiteSpace=wrap;html=1;shadow=0;fillColor=#ffe6cc;strokeColor=#d79b00;" parent="1" vertex="1">
          <mxGeometry x="210" y="90" width="300" height="540" as="geometry" />
        </mxCell>
        <mxCell id="RxwCrVmIsQwV7z5iJ9nY-20" value="" style="rounded=1;whiteSpace=wrap;html=1;fillColor=#DBDBDB;strokeColor=#666666;fontColor=#333333;" parent="1" vertex="1">
          <mxGeometry x="290" y="640" width="140" height="10" as="geometry" />
        </mxCell>
        <mxCell id="RxwCrVmIsQwV7z5iJ9nY-3" value="" style="rounded=1;whiteSpace=wrap;html=1;fillColor=#DBDBDB;strokeColor=#666666;fontColor=#333333;" parent="1" vertex="1">
          <mxGeometry x="300" y="50" width="120" height="30" as="geometry" />
        </mxCell>
        <mxCell id="RxwCrVmIsQwV7z5iJ9nY-12" value="&lt;font&gt;surface_size&lt;/font&gt;" style="endArrow=none;html=1;strokeWidth=3;rounded=0;dashed=1;align=left;fontSize=20;fontFamily=monospace;fontColor=#82B366;labelBackgroundColor=none;spacingLeft=15;spacingRight=15;spacing=0;fillColor=#d5e8d4;strokeColor=#82b366;exitX=1;exitY=0;exitDx=0;exitDy=0;" parent="1" source="RxwCrVmIsQwV7z5iJ9nY-2" edge="1">
          <mxGeometry width="50" height="50" relative="1" as="geometry">
            <mxPoint x="210" y="50" as="sourcePoint" />
            <mxPoint x="510" y="670" as="targetPoint" />
            <Array as="points">
              <mxPoint x="560" y="50" />
              <mxPoint x="560" y="670" />
            </Array>
            <mxPoint as="offset" />
          </mxGeometry>
        </mxCell>
        <mxCell id="NrHAzeOh65jb3hkBOxW9-1" value="&lt;div&gt;safe_area.top&lt;/div&gt;" style="endArrow=blockThin;html=1;strokeWidth=3;rounded=0;align=right;fontSize=20;fontFamily=monospace;fontColor=#D79B00;labelBackgroundColor=none;spacingLeft=0;spacingRight=15;spacing=0;fillColor=#ffe6cc;strokeColor=#d79b00;startArrow=blockThin;startFill=1;endFill=1;" edge="1" parent="1">
          <mxGeometry width="50" height="50" relative="1" as="geometry">
            <mxPoint x="180" y="50" as="sourcePoint" />
            <mxPoint x="180" y="90" as="targetPoint" />
            <mxPoint as="offset" />
          </mxGeometry>
        </mxCell>
        <mxCell id="NrHAzeOh65jb3hkBOxW9-5" value="&lt;div&gt;safe_area.bottom&lt;/div&gt;" style="endArrow=blockThin;html=1;strokeWidth=3;rounded=0;align=right;fontSize=20;fontFamily=monospace;fontColor=#D79B00;labelBackgroundColor=none;spacingLeft=0;spacingRight=15;spacing=0;fillColor=#ffe6cc;strokeColor=#d79b00;startArrow=blockThin;startFill=1;endFill=1;" edge="1" parent="1">
          <mxGeometry width="50" height="50" relative="1" as="geometry">
            <mxPoint x="180" y="670" as="sourcePoint" />
            <mxPoint x="180" y="630" as="targetPoint" />
            <mxPoint as="offset" />
          </mxGeometry>
        </mxCell>
      </root>
    </mxGraphModel>
  </diagram>
</mxfile>
